<svg id="Layer_1" enable-background="new 0 0 512.086 512.086" height="512" viewBox="0 0 512.086 512.086" width="512" xmlns="http://www.w3.org/2000/svg"><g><g><g><path d="m7.543 7.501 181.775 168.638h.159l33.14-30.739-148.67-137.899z" fill="#ffc72e"/><path d="m371.287 7.501-115.244 106.894-115.244-106.894h-66.852l148.67 137.899h66.853l148.67-137.899z" fill="#ffed75"/><path d="m438.14 7.501-148.67 137.899 33.14 30.739h.159l181.774-168.638z" fill="#ffc72e"/></g><g><g><g><path d="m277.822 171.535h-43.557v-63.269c0-12.027 9.75-21.777 21.777-21.777h.003c12.027 0 21.777 9.75 21.777 21.777z" fill="#ac95cf"/><g><ellipse cx="256.043" cy="320.8" fill="#c7badb" rx="183.631" ry="183.7"/><ellipse cx="256.043" cy="320.8" fill="#f1f0f7" rx="145.408" ry="145.478"/><path d="m256.043 175.322c-6.785 0-13.46.478-20 1.382 70.748 9.781 125.408 70.667 125.408 144.096s-54.66 134.315-125.408 144.095c6.54.904 13.215 1.383 20 1.383 80.178 0 145.408-65.261 145.408-145.478s-65.229-145.478-145.408-145.478z" fill="#e9e4f5"/></g></g><path d="m219.558 400.011c-4.752-1.56-8.449-5.247-9.892-9.863-2.38-7.62.616-12.027 9.627-23.647 6.912-8.914 19.745-25.464 41.231-55.699 5.81-8.175 11.097-17.174 12.42-27.24-.683-10.402-9.513-18.55-20.103-18.55-9.607 0-17.92 6.72-19.767 15.979-3.573 17.923-32.257 12.78-28.605-5.534 4.525-22.689 24.869-39.156 48.372-39.156 27.183 0 49.297 21.78 49.297 48.551 0 15.185-9.235 30.457-17.731 42.414-10.842 15.257-21.938 30.323-33.15 45.309 14.021-.071 28.042-.163 42.062-.328 7.934 0 14.47 6.359 14.57 14.176.101 7.915-6.355 14.434-14.392 14.535-18.703.23-72.009-.313-73.939-.947z" fill="#c7badb"/></g></g></g><g><path d="m510.041 2.399c-2.816-3.036-7.562-3.214-10.599-.397l-158.83 147.352c-9.957-4.935-20.402-9.028-31.243-12.183l133.871-124.172c3.037-2.817 3.215-7.562.398-10.599-2.816-3.037-7.561-3.216-10.599-.398l-141.192 130.963c-2.163-.412-4.338-.787-6.526-1.125v-23.575c0-3.276-.541-6.428-1.538-9.371l92.604-85.895c3.037-2.816 3.215-7.562.398-10.599-2.815-3.037-7.561-3.216-10.599-.398l-90.846 84.264c-10.532-9.631-28.066-9.63-38.596 0l-90.844-84.264c-3.037-2.817-7.783-2.638-10.599.398-2.817 3.037-2.639 7.783.398 10.599l92.604 85.895c-.997 2.944-1.538 6.096-1.538 9.372v23.575c-2.188.338-4.363.713-6.526 1.125l-141.192-130.964c-3.037-2.817-7.783-2.638-10.599.398-2.817 3.037-2.639 7.783.398 10.599l133.871 124.173c-10.84 3.155-21.286 7.248-31.243 12.183l-158.83-147.353c-3.037-2.818-7.782-2.639-10.599.397-2.817 3.037-2.64 7.782.397 10.599l155.171 143.957c-55.505 33.495-92.7 94.406-92.7 163.845-1.323 155.95 182.766 247.854 306.192 152.574 3.303-2.499 3.956-7.203 1.457-10.506-2.5-3.302-7.202-3.955-10.506-1.457-113.75 87.796-283.369 3.084-282.142-140.613-.001-95.882 80.23-176.198 176.13-176.198 148.27.289 231.65 178.171 133.655 290.819-2.698 3.144-2.336 7.878.807 10.576s7.877 2.336 10.576-.807c77.876-88.245 52.424-230.849-46.608-288.232l155.17-143.957c3.037-2.817 3.215-7.563.397-10.6zm-268.276 127.73v-21.864c.786-18.943 27.777-18.932 28.557 0v21.864c-9.409-.704-19.149-.704-28.557 0z"/><path d="m152.263 208.556c-101.537 93.712-34.463 265.298 103.782 265.222 202.847-8.402 202.797-297.58-.003-305.956-24.18 0-48.279 5.821-69.689 16.833-3.684 1.895-5.134 6.417-3.239 10.1 1.895 3.684 6.417 5.135 10.1 3.239 89.682-47.539 202.015 21.231 200.737 122.808.001 76.08-61.864 137.976-137.907 137.976-124.701.041-185.179-154.687-93.586-239.217 3.037-2.814 3.219-7.559.405-10.599-2.815-3.037-7.561-3.221-10.6-.406z"/><path d="m150.929 313.644c-9.652 0-9.668 15 0 15 9.651 0 9.667-15 0-15z"/><path d="m164.903 381.23c9.652 0 9.668-15 0-15-9.652 0-9.668 15 0 15z"/><path d="m346.967 381.606c9.652 0 9.668-15 0-15-9.652 0-9.668 15 0 15z"/><path d="m361.158 329.077c9.652 0 9.668-15 0-15-9.652 0-9.668 15 0 15z"/><path d="m347.184 261.491c-9.652 0-9.668 15 0 15 9.651 0 9.667-15 0-15z"/><path d="m165.12 261.116c-9.652 0-9.668 15 0 15 9.652 0 9.668-15 0-15z"/><path d="m309.639 284.852c-1.869-67.686-97.537-76.682-112.524-10.862-1.535 7.698.808 14.942 6.428 19.875 12.504 10.976 33.539 5.394 36.888-11.408 3.053-13.695 22.958-12.95 24.965.908-1.358 8.624-6.297 16.497-10.985 23.093-21.384 30.091-34.166 46.577-41.044 55.447-8.748 11.281-14.528 18.733-10.859 30.48 2.164 6.923 9.137 16.071 23.202 16.071 0 0 64.883.037 67.881 0 28.166-.352 27.93-43.71-.358-43.709-9.279.109-18.541.185-26.974.241 9.036-12.197 16.898-23.014 24.263-33.378 8.901-12.526 19.117-29.16 19.117-46.758zm-64.386 83.23c-3.944 5.271.453 11.245 6.043 11.993 11.571-.059 26.815-.148 42.024-.328 9.01 0 8.747 12.881.084 13.71-18.809.231-65.31-.286-72.082-.783-2.174-.893-3.834-2.637-4.498-4.761-1.115-3.571-.555-5.276 8.406-16.83 6.934-8.943 19.841-25.59 41.406-55.936 6.054-8.518 14.513-21.089 13.791-32.076-2.876-31.812-47.721-34.647-54.708-3.547-1.123 5.633-8.334 6.533-12.282 3.068-1.593-1.398-2.105-3.2-1.613-5.669 10.993-48.237 81.448-41.649 82.814 7.929 0 13.506-9.328 28.195-16.345 38.069-9.632 13.557-20.132 27.907-33.04 45.161z"/></g></g></svg>