<svg id="Layer_1" enable-background="new 0 0 512.048 512.048" height="512" viewBox="0 0 512.048 512.048" width="512" xmlns="http://www.w3.org/2000/svg"><g><g><g><path d="m7.542 7.539 181.775 168.639h.159l33.14-30.739-148.67-137.9" fill="#836da6"/><path d="m371.286 7.539-115.244 106.895-115.244-106.895h-66.852l148.67 137.9h66.853l148.67-137.9z" fill="#c7badb"/><path d="m438.139 7.539-148.67 137.9 33.14 30.739h.159l181.774-168.639" fill="#836da6"/></g><g><g><g><g><g><path d="m277.818 171.609h-43.552v-63.263c0-12.026 9.749-21.775 21.775-21.775h.003c12.026 0 21.775 9.749 21.775 21.775v63.263z" fill="#f26d9f"/><g><ellipse cx="256.042" cy="320.859" fill="#f683ae" rx="183.611" ry="183.681"/><ellipse cx="256.042" cy="320.859" fill="#ffd4e6" rx="145.393" ry="145.462"/><path d="m256.042 175.396c-6.785 0-13.46.478-20 1.383 70.739 9.781 125.393 70.66 125.393 144.08s-54.654 134.299-125.393 144.08c6.54.904 13.215 1.383 20 1.383 80.17 0 145.393-65.254 145.393-145.462s-65.223-145.464-145.393-145.464z" fill="#ffc2db"/></g></g></g><path d="m255.947 403.359c-24.196 0-44.96-17.847-48.3-41.513-3.095-21.897 24.829-25.874 27.933-3.856 1.407 9.967 10.163 17.483 20.367 17.483 11.341 0 20.567-9.123 20.567-20.335s-9.226-20.335-20.567-20.335c-17.446 0-17.661-27.886 0-27.886 11.341 0 20.567-9.123 20.567-20.335 0-11.213-9.226-20.335-20.567-20.335-9.808 0-18.294 6.888-20.179 16.378-3.361 16.92-31.061 11.667-27.676-5.374 4.476-22.535 24.602-38.891 47.855-38.891 26.893 0 48.771 21.632 48.771 48.222 0 13.213-5.655 24.594-14.211 34.279 8.556 9.684 14.211 21.064 14.211 34.278 0 26.587-21.878 48.22-48.771 48.22z" fill="#f683ae"/></g></g></g></g><g><path d="m510.04 2.438c-2.815-3.035-7.562-3.214-10.599-.397l-158.855 147.376c-10.061-4.989-20.511-9.06-31.246-12.181l133.9-124.199c3.037-2.816 3.215-7.562.398-10.599-2.817-3.036-7.562-3.215-10.6-.398l-141.225 130.994c-2.156-.41-4.322-.782-6.495-1.118v-23.57c0-3.287-.545-6.45-1.549-9.402l92.617-85.906c3.037-2.816 3.215-7.562.398-10.599-2.817-3.036-7.562-3.215-10.6-.398l-90.871 84.287c-10.524-9.602-28.024-9.601-38.545 0l-90.869-84.287c-3.037-2.817-7.782-2.638-10.599.398-2.817 3.037-2.639 7.783.398 10.599l92.617 85.907c-1.004 2.952-1.548 6.115-1.548 9.402v23.571c-2.177.336-4.341.709-6.493 1.119l-141.228-130.996c-7.516-6.502-17.244 4-10.201 10.997l133.904 124.203c-10.841 3.154-21.288 7.245-31.246 12.179l-158.86-147.379c-7.514-6.503-17.245 3.999-10.202 10.996l155.199 143.983c-163.775 99.647-95.97 353.055 98.405 355.019 117.464 1.172 209.756-109.36 188.163-224.709-.725-4.078-4.623-6.8-8.696-6.073-4.078.724-6.797 4.618-6.073 8.696 19.886 106.299-65.133 208.167-173.396 207.085-97.107.001-176.111-79.033-176.111-176.18 0-95.875 80.223-176.181 176.111-176.181 70.471 0 135.646 43.69 162.693 108.756 1.591 3.825 5.979 5.637 9.805 4.046 3.825-1.59 5.637-5.979 4.047-9.804-15.616-37.684-43.102-69.529-78.143-90.656l155.198-143.982c3.037-2.816 3.215-7.562.397-10.599zm-268.274 127.769v-21.86c.785-18.94 27.773-18.928 28.552 0v21.86c-9.439-.705-19.13-.703-28.552 0z"/><path d="m120.06 372.881c-3.786 1.681-5.491 6.113-3.81 9.898 24.566 55.306 79.438 91.042 139.792 91.042 202.817-8.393 202.788-297.549-.001-305.925-92.308-.771-165.428 84.165-151.252 175.331.603 4.098 4.412 6.933 8.512 6.328 4.098-.603 6.931-4.414 6.328-8.512-12.779-82.229 53.148-158.845 136.414-158.147 182.921 7.572 182.89 268.37-.002 275.924-54.43 0-103.92-32.239-126.082-82.131-1.681-3.784-6.113-5.489-9.899-3.808z"/><path d="m150.939 313.702c-9.652 0-9.668 15 0 15 9.652 0 9.668-15 0-15z"/><path d="m164.912 366.283c-9.652 0-9.668 15 0 15 9.652 0 9.668-15 0-15z"/><path d="m346.956 381.659c9.652 0 9.668-15 0-15-9.652 0-9.668 15 0 15z"/><path d="m361.146 329.136c9.652 0 9.668-15 0-15-9.652 0-9.668 15 0 15z"/><path d="m347.173 261.555c-9.652 0-9.668 15 0 15 9.652 0 9.668-15 0-15z"/><path d="m165.129 261.18c-9.652 0-9.668 15 0 15 9.651 0 9.667-15 0-15z"/><path d="m255.947 367.972c-6.49 0-12.053-4.742-12.94-11.03-1.324-9.394-6.447-16.542-14.056-19.612-16.923-6.825-31.035 9.263-28.73 25.563 3.859 27.344 27.816 47.965 55.727 47.965 46.213.163 73.245-53.32 44.224-90 29.022-36.688 1.986-90.164-44.225-90-26.82 0-50.039 18.896-55.211 44.929-5.195 26.155 37.199 34.419 42.388 8.296 3.421-15.05 25.466-13.013 25.89 2.496 0 7.077-5.861 12.835-13.067 12.835-26.953 0-26.834 42.887 0 42.887 7.206 0 13.067 5.757 13.067 12.834 0 7.079-5.861 12.837-13.067 12.837zm0-40.67c-7.423 0-7.452-12.887 0-12.887 15.476 0 28.067-12.487 28.067-27.835-.91-33.583-48.178-38.096-55.603-5.418-1.438 7.241-14.42 4.886-12.962-2.452 3.781-19.036 20.813-32.852 40.499-32.852 36.686.379 54.961 43.001 28.939 70.034-2.507 2.836-2.507 7.096 0 9.932 26.025 27.04 7.741 69.656-28.939 70.034-20.48 0-38.052-15.073-40.874-35.063-1.543-10.915 11.398-13.69 13.081-1.759 5.964 33.94 54.753 30.626 55.86-3.901-.001-15.347-12.592-27.833-28.068-27.833z"/></g></g></svg>