<?xml version="1.0"?>
<svg xmlns="http://www.w3.org/2000/svg" width="512" height="512" viewBox="0 0 512 512"><g><path d="M168,264a24,24,0,1,0,24,24A24.027,24.027,0,0,0,168,264Zm0,32a8,8,0,1,1,8-8A8.009,8.009,0,0,1,168,296Z"/><path d="M492.24,207.06A8,8,0,0,0,504,200V168a8.005,8.005,0,0,0-4.24-7.06l-240-128a8.009,8.009,0,0,0-7.52,0l-240,128A8.005,8.005,0,0,0,8,168v32a8,8,0,0,0,11.76,7.06L32,200.53V384H16a8,8,0,0,0-8,8v32a8,8,0,0,0,8,8v40a8,8,0,0,0,8,8H488a8,8,0,0,0,8-8V432a8,8,0,0,0,8-8V392a8,8,0,0,0-8-8H480V200.53ZM480,464H32V432H480Zm8-64v16H24V400Zm-63.15-87.99L392,305.44v-9.46A39.967,39.967,0,0,0,408,264V232a40.04,40.04,0,0,0-40-40H352a40.04,40.04,0,0,0-40,40v32a40.069,40.069,0,0,0,32,39.2v2.55l-25.05,6.27A32.035,32.035,0,0,0,288,344v40H206.94l-2.29-16H252a28.031,28.031,0,0,0,28-28V236a28.031,28.031,0,0,0-28-28H84a28.031,28.031,0,0,0-28,28V340a28.031,28.031,0,0,0,28,28h47.35l-2.29,16H48V192L256,81.07,464,192V384h-8V344A32.041,32.041,0,0,0,424.85,312.01ZM416,360a8,8,0,0,0-8,8v16H328V368a8,8,0,0,0-16,0v16h-8V344a16.021,16.021,0,0,1,16-16,7.93,7.93,0,0,0,1.94-.24l24.12-6.03a24,24,0,0,0,44.03-.35l32.34,6.46A7.537,7.537,0,0,0,424,328a16.021,16.021,0,0,1,16,16v40H424V368A8,8,0,0,0,416,360ZM392,244.93V264a24.032,24.032,0,0,1-24,24H352a24.032,24.032,0,0,1-24-24v-8.19C341.89,255.27,370.86,253.16,392,244.93Zm-64-5.12V232a24.032,24.032,0,0,1,24-24h16a24.043,24.043,0,0,1,23.6,19.64C374.96,236.14,345.2,239.1,328,239.81ZM376,304v8a8,8,0,0,1-16,0v-8ZM144,328a8,8,0,0,0-7.92,6.87L133.63,352H84a12.01,12.01,0,0,1-12-12V236a12.01,12.01,0,0,1,12-12H252a12.01,12.01,0,0,1,12,12V340a12.01,12.01,0,0,1-12,12H202.37l-2.45-17.13A8,8,0,0,0,192,328Zm46.78,56H145.22l5.72-40h34.12ZM259.76,64.94a7.99,7.99,0,0,0-7.52,0L24,186.67V172.8L256,49.07,488,172.8v13.87Z"/></g></svg>
